<svg width="18" height="18" viewBox="0 0 18 18" fill="none" xmlns="http://www.w3.org/2000/svg">
<path d="M8.95833 5.41667C8.44057 5.41667 8.02083 5.8364 8.02083 6.35417C8.02083 6.69934 7.74101 6.97917 7.39583 6.97917C7.05066 6.97917 6.77083 6.69934 6.77083 6.35417C6.77083 5.14604 7.75021 4.16667 8.95833 4.16667C10.1665 4.16667 11.1458 5.14604 11.1458 6.35417C11.1458 7.15695 10.713 7.85798 10.0711 8.23781C9.90709 8.33481 9.77175 8.44073 9.68357 8.54464C9.59795 8.64552 9.58333 8.71134 9.58333 8.75V9.79167C9.58333 10.1368 9.30351 10.4167 8.95833 10.4167C8.61316 10.4167 8.33333 10.1368 8.33333 9.79167V8.75C8.33333 8.32843 8.5179 7.98636 8.73049 7.73584C8.94052 7.48835 9.20241 7.29934 9.43456 7.16199C9.71203 6.99783 9.89583 6.69713 9.89583 6.35417C9.89583 5.8364 9.4761 5.41667 8.95833 5.41667Z" fill="url(#paint0_linear_147687_694)"/>
<path d="M8.95833 13.125C9.41857 13.125 9.79167 12.7519 9.79167 12.2917C9.79167 11.8314 9.41857 11.4583 8.95833 11.4583C8.4981 11.4583 8.125 11.8314 8.125 12.2917C8.125 12.7519 8.4981 13.125 8.95833 13.125Z" fill="url(#paint1_linear_147687_694)"/>
<path fill-rule="evenodd" clip-rule="evenodd" d="M8.91052 1.67658e-07H9.00615C10.9298 -1.02087e-05 12.4373 -1.83284e-05 13.6136 0.158123C14.8175 0.319989 15.7675 0.657773 16.5132 1.40345C17.2589 2.14912 17.5967 3.09914 17.7585 4.30309C17.9167 5.47933 17.9167 6.98686 17.9167 8.91052V9.00614C17.9167 10.9298 17.9167 12.4373 17.7585 13.6136C17.5967 14.8175 17.2589 15.7675 16.5132 16.5132C15.7675 17.2589 14.8175 17.5967 13.6136 17.7585C12.4373 17.9167 10.9298 17.9167 9.00614 17.9167H8.91052C6.98686 17.9167 5.47933 17.9167 4.30309 17.7585C3.09914 17.5967 2.14912 17.2589 1.40345 16.5132C0.657773 15.7675 0.319989 14.8175 0.158123 13.6136C-1.83284e-05 12.4373 -1.02087e-05 10.9298 1.67658e-07 9.00616V8.91052C-1.02087e-05 6.98687 -1.83284e-05 5.47932 0.158123 4.30309C0.319989 3.09914 0.657773 2.14912 1.40345 1.40345C2.14912 0.657773 3.09914 0.319989 4.30309 0.158123C5.47932 -1.83284e-05 6.98686 -1.02087e-05 8.91052 1.67658e-07ZM4.46965 1.39698C3.40431 1.54021 2.76204 1.81262 2.28733 2.28733C1.81262 2.76204 1.54021 3.40431 1.39698 4.46965C1.25133 5.55296 1.25 6.97648 1.25 8.95833C1.25 10.9402 1.25133 12.3637 1.39698 13.447C1.54021 14.5124 1.81262 15.1546 2.28733 15.6293C2.76204 16.104 3.40431 16.3765 4.46965 16.5197C5.55296 16.6653 6.97648 16.6667 8.95833 16.6667C10.9402 16.6667 12.3637 16.6653 13.447 16.5197C14.5124 16.3765 15.1546 16.104 15.6293 15.6293C16.104 15.1546 16.3765 14.5124 16.5197 13.447C16.6653 12.3637 16.6667 10.9402 16.6667 8.95833C16.6667 6.97648 16.6653 5.55296 16.5197 4.46965C16.3765 3.40431 16.104 2.76204 15.6293 2.28733C15.1546 1.81262 14.5124 1.54021 13.447 1.39698C12.3637 1.25133 10.9402 1.25 8.95833 1.25C6.97648 1.25 5.55296 1.25133 4.46965 1.39698Z" fill="url(#paint2_linear_147687_694)"/>
<defs>
<linearGradient id="paint0_linear_147687_694" x1="-2.6409" y1="4.06812e-06" x2="18.7692" y2="1.20454" gradientUnits="userSpaceOnUse">
<stop stop-color="#FF7000"/>
<stop offset="0.9999" stop-color="#E2985E"/>
<stop offset="1" stop-color="#E2995F"/>
</linearGradient>
<linearGradient id="paint1_linear_147687_694" x1="-2.6409" y1="4.06812e-06" x2="18.7692" y2="1.20454" gradientUnits="userSpaceOnUse">
<stop stop-color="#FF7000"/>
<stop offset="0.9999" stop-color="#E2985E"/>
<stop offset="1" stop-color="#E2995F"/>
</linearGradient>
<linearGradient id="paint2_linear_147687_694" x1="-2.6409" y1="4.06812e-06" x2="18.7692" y2="1.20454" gradientUnits="userSpaceOnUse">
<stop stop-color="#FF7000"/>
<stop offset="0.9999" stop-color="#E2985E"/>
<stop offset="1" stop-color="#E2995F"/>
</linearGradient>
</defs>
</svg>
