<svg width="15" height="13" viewBox="0 0 15 13" fill="none" xmlns="http://www.w3.org/2000/svg">
<path d="M7.32526 7.79112C8.04802 7.79112 8.63392 7.20664 8.63392 6.48565C8.63392 5.76466 8.04802 5.18018 7.32526 5.18018C6.60251 5.18018 6.0166 5.76466 6.0166 6.48565C6.0166 7.20664 6.60251 7.79112 7.32526 7.79112Z" fill="#00D8FF"/>
<path d="M7.32539 9.476C5.48753 9.476 3.88168 9.26016 2.67989 8.84927C1.90043 8.58401 1.23828 8.23034 0.766429 7.82726C0.265904 7.40077 0 6.93527 0 6.48537C0 5.62199 0.948912 4.77682 2.54173 4.2255C3.84518 3.773 5.54488 3.52075 7.32278 3.52075C9.06941 3.52075 10.7456 3.7652 12.0413 4.2125C12.7999 4.47255 13.4386 4.81062 13.8922 5.1851C14.3849 5.59599 14.6456 6.04588 14.6456 6.48537C14.6456 7.38256 13.5846 8.29015 11.8744 8.85447C10.6648 9.25496 9.04855 9.476 7.32539 9.476ZM7.32539 4.14488C5.63873 4.14488 3.97031 4.38933 2.75028 4.81322C1.2852 5.32293 0.628263 6.01988 0.628263 6.48537C0.628263 6.96908 1.33473 7.73104 2.88323 8.25895C4.01984 8.64643 5.55791 8.85187 7.32539 8.85187C8.98338 8.85187 10.5293 8.64383 11.6789 8.26155C13.2874 7.72844 14.0225 6.96648 14.0225 6.48537C14.0225 6.23832 13.8348 5.94706 13.4933 5.6636C13.0997 5.33593 12.5262 5.03687 11.8405 4.80022C10.6075 4.37893 9.00424 4.14488 7.32539 4.14488Z" fill="#00D8FF"/>
<path d="M4.35601 12.992C4.09011 12.992 3.85549 12.9348 3.65736 12.8204C2.90918 12.3887 2.64849 11.1456 2.96393 9.49427C3.22201 8.13939 3.85288 6.54785 4.74183 5.01093C5.61515 3.50261 6.66312 2.17633 7.69806 1.27915C8.30286 0.753835 8.91548 0.368954 9.46815 0.166111C10.0703 -0.0549351 10.5917 -0.0549351 10.9723 0.163511C11.7518 0.610805 12.0099 1.98389 11.6449 3.74186C11.3868 4.99013 10.7716 6.49584 9.91132 7.98596C8.99369 9.57229 8.00307 10.8518 7.04634 11.6865C6.42589 12.2274 5.7872 12.6227 5.20326 12.8282C4.89825 12.9374 4.61149 12.992 4.35601 12.992ZM5.01034 5.16696L5.28146 5.323C4.43943 6.7793 3.81638 8.34223 3.57655 9.6113C3.28718 11.1326 3.56612 12.048 3.96758 12.2795C4.06665 12.3367 4.19699 12.3679 4.35601 12.3679C4.87479 12.3679 5.69075 12.0402 6.63444 11.2184C7.53904 10.4305 8.48535 9.20301 9.36909 7.67649C10.1981 6.24359 10.7872 4.80289 11.0323 3.61964C11.3738 1.96309 11.0792 0.948876 10.6595 0.707025C10.4457 0.5848 10.099 0.600403 9.68191 0.753835C9.19964 0.930672 8.65479 1.27655 8.10734 1.75245C7.12454 2.60542 6.12089 3.87449 5.28146 5.3256L5.01034 5.16696Z" fill="#00D8FF"/>
<path d="M10.2947 12.9999C9.58562 12.9999 8.68624 12.5734 7.74776 11.7673C6.69978 10.8675 5.63356 9.5282 4.742 7.99127C3.86608 6.48296 3.24043 4.91483 2.97713 3.57034C2.82332 2.78498 2.79465 2.06463 2.89371 1.48471C3.0032 0.852774 3.26128 0.402879 3.6445 0.181833C4.42135 -0.268062 5.74305 0.194835 7.08821 1.38849C8.04234 2.23366 9.04339 3.51833 9.90627 5.00585C10.8265 6.59218 11.4443 8.08749 11.6894 9.33056C11.8484 10.1367 11.8745 10.8857 11.7624 11.4942C11.6425 12.1417 11.3713 12.602 10.9803 12.8283C10.7848 12.9427 10.5528 12.9999 10.2947 12.9999ZM5.28424 7.67921C6.12887 9.13552 7.17684 10.454 8.15704 11.294C9.33275 12.303 10.266 12.5214 10.6701 12.2874C11.0898 12.0455 11.3974 11.0547 11.0794 9.45278C10.8448 8.27734 10.253 6.84703 9.36664 5.32051C8.53504 3.88761 7.57831 2.65755 6.67371 1.85658C5.40676 0.733149 4.37964 0.480896 3.95993 0.722746C3.74616 0.844972 3.58714 1.15444 3.51154 1.59133C3.42552 2.09584 3.45158 2.74077 3.59236 3.45072C3.84262 4.72759 4.44221 6.2281 5.28424 7.67921Z" fill="#00D8FF"/>
</svg>
