<svg width="16" height="14" viewBox="0 0 16 14" fill="none" xmlns="http://www.w3.org/2000/svg">
<path fill-rule="evenodd" clip-rule="evenodd" d="M7.87768 2.47998C5.88308 2.47998 4.63678 3.48449 4.13791 5.49351C4.88593 4.489 5.75851 4.11238 6.75566 4.36336C7.32459 4.50653 7.73142 4.92235 8.18134 5.38272C8.9147 6.13239 9.76354 6.99998 11.6172 6.99998C13.6115 6.99998 14.8581 5.99547 15.3566 3.98675C14.6089 4.99126 13.7363 5.36787 12.7392 5.1166C12.17 4.97344 11.7631 4.55761 11.3132 4.09753C10.5798 3.34727 9.7313 2.47998 7.87768 2.47998ZM4.13791 6.99998C2.1436 6.99998 0.897015 8.00449 0.398438 10.0135C1.14645 9.009 2.01903 8.63238 3.01589 8.88336C3.58511 9.02653 3.99195 9.44235 4.44187 9.90272C5.17522 10.6524 6.02377 11.52 7.87768 11.52C9.87199 11.52 11.1186 10.5158 11.6172 8.50675C10.8691 9.51126 9.99656 9.88787 8.99941 9.63689C8.43048 9.49344 8.02365 9.07761 7.57373 8.61753C6.84037 7.86786 5.99153 6.99998 4.13791 6.99998Z" fill="#38BDF8"/>
</svg>
