<svg width="13" height="13" viewBox="0 0 13 13" fill="none" xmlns="http://www.w3.org/2000/svg">
<g clip-path="url(#clip0_147687_728)">
<path d="M3.48766 12.6281L0.40625 0.373535L12.5938 3.79619" fill="white"/>
<path d="M4.99316 7.36182L5.76301 10.427" stroke="black" stroke-width="0.273684" stroke-miterlimit="10"/>
<path d="M8.03395 8.22307L4.99316 7.36182" stroke="black" stroke-width="0.273684" stroke-miterlimit="10"/>
<path d="M5.7627 10.4268L8.03363 8.2229" stroke="black" stroke-width="0.273684" stroke-miterlimit="10"/>
<path d="M5.76246 10.4267L2.72168 9.56543" stroke="black" stroke-width="0.273684" stroke-miterlimit="10"/>
<path d="M2.72168 9.56543L3.49152 12.6326L5.76246 10.4267" stroke="black" stroke-width="0.273684" stroke-miterlimit="10"/>
<path d="M2.72168 9.56572L4.99262 7.36182" stroke="black" stroke-width="0.273684" stroke-miterlimit="10"/>
<path d="M4.99316 7.36121L7.26613 5.15527" stroke="black" stroke-width="0.273684" stroke-miterlimit="10"/>
<path d="M7.26611 5.15557L9.53705 2.95166" stroke="black" stroke-width="0.273684" stroke-miterlimit="10"/>
<path d="M6.49609 2.09058L7.26594 5.15573" stroke="black" stroke-width="0.273684" stroke-miterlimit="10"/>
<path d="M7.26596 5.15609L4.22314 4.29688" stroke="black" stroke-width="0.273684" stroke-miterlimit="10"/>
<path d="M4.22314 4.29688L4.99299 7.36203" stroke="black" stroke-width="0.273684" stroke-miterlimit="10"/>
<path d="M4.99293 7.36174L1.95215 6.50049" stroke="black" stroke-width="0.273684" stroke-miterlimit="10"/>
<path d="M1.95215 6.50049L2.72199 9.56564" stroke="black" stroke-width="0.273684" stroke-miterlimit="10"/>
<path d="M1.18213 3.43555L1.95197 6.5007" stroke="black" stroke-width="0.273684" stroke-miterlimit="10"/>
<path d="M4.22291 4.2968L1.18213 3.43555" stroke="black" stroke-width="0.273684" stroke-miterlimit="10"/>
<path d="M1.95215 6.50078L4.22309 4.29688" stroke="black" stroke-width="0.273684" stroke-miterlimit="10"/>
<path d="M4.22314 4.29448L6.49611 2.09058" stroke="black" stroke-width="0.273684" stroke-miterlimit="10"/>
<path d="M6.49643 2.0905L3.45361 1.22925" stroke="black" stroke-width="0.273684" stroke-miterlimit="10"/>
<path d="M3.45361 1.22925L4.22346 4.2944" stroke="black" stroke-width="0.273684" stroke-miterlimit="10"/>
<path d="M1.18244 3.43511L0.412598 0.36792L3.45338 1.22917" stroke="black" stroke-width="0.273684" stroke-miterlimit="10"/>
<path d="M1.18213 3.43519L3.45307 1.22925" stroke="black" stroke-width="0.273684" stroke-miterlimit="10"/>
<path d="M10.307 6.01682L12.5779 3.81291L9.53711 2.95166" stroke="black" stroke-width="0.273684" stroke-miterlimit="10"/>
<path d="M9.53711 2.95166L10.307 6.01682" stroke="black" stroke-width="0.273684" stroke-miterlimit="10"/>
<path d="M10.3069 6.01652L7.26611 5.15527" stroke="black" stroke-width="0.273684" stroke-miterlimit="10"/>
<path d="M7.26611 5.15527L8.03393 8.22246" stroke="black" stroke-width="0.273684" stroke-miterlimit="10"/>
<path d="M8.03369 8.22254L10.3067 6.0166" stroke="black" stroke-width="0.273684" stroke-miterlimit="10"/>
<path d="M9.53688 2.95183L6.49609 2.09058" stroke="black" stroke-width="0.273684" stroke-miterlimit="10"/>
</g>
<defs>
<clipPath id="clip0_147687_728">
<rect width="13" height="13" fill="white"/>
</clipPath>
</defs>
</svg>
