<svg width="14" height="14" viewBox="0 0 14 14" fill="none" xmlns="http://www.w3.org/2000/svg">
<g clip-path="url(#clip0_147687_720)">
<path d="M12.6328 0H1.36719C0.612111 0 0 0.612111 0 1.36719V12.6328C0 13.3879 0.612111 14 1.36719 14H12.6328C13.3879 14 14 13.3879 14 12.6328V1.36719C14 0.612111 13.3879 0 12.6328 0Z" fill="#3178C6"/>
<path d="M12.6328 0H1.36719C0.612111 0 0 0.612111 0 1.36719V12.6328C0 13.3879 0.612111 14 1.36719 14H12.6328C13.3879 14 14 13.3879 14 12.6328V1.36719C14 0.612111 13.3879 0 12.6328 0Z" fill="#3178C6"/>
<path fill-rule="evenodd" clip-rule="evenodd" d="M8.6663 11.1405V12.5094C8.88882 12.6234 9.15201 12.709 9.45585 12.766C9.7597 12.823 10.0799 12.8516 10.4166 12.8516C10.7447 12.8516 11.0563 12.8202 11.3516 12.7574C11.6469 12.6947 11.9058 12.5913 12.1283 12.4473C12.3509 12.3033 12.527 12.1151 12.6568 11.8827C12.7866 11.6502 12.8516 11.3629 12.8516 11.0207C12.8516 10.7726 12.8145 10.5552 12.7403 10.3684C12.6661 10.1816 12.5591 10.0155 12.4193 9.87005C12.2796 9.72461 12.1119 9.59413 11.9165 9.47863C11.7211 9.36313 11.5007 9.25405 11.2553 9.15141C11.0756 9.07725 10.9144 9.00525 10.7718 8.93539C10.6291 8.8655 10.5079 8.79421 10.408 8.72151C10.3082 8.64877 10.2311 8.57177 10.1769 8.49051C10.1227 8.40922 10.0956 8.31726 10.0956 8.21458C10.0956 8.12049 10.1199 8.03564 10.1684 7.96007C10.2169 7.88449 10.2854 7.81963 10.3738 7.76543C10.4622 7.71127 10.5706 7.66918 10.699 7.63924C10.8274 7.6093 10.97 7.59434 11.127 7.59434C11.2411 7.59434 11.3616 7.6029 11.4886 7.61999C11.6155 7.63711 11.7432 7.6635 11.8716 7.69912C12 7.73478 12.1248 7.77971 12.246 7.83388C12.3673 7.88807 12.4792 7.9508 12.582 8.02211V6.74308C12.3737 6.66323 12.1462 6.60406 11.8994 6.56556C11.6526 6.52706 11.3694 6.50781 11.0499 6.50781C10.7247 6.50781 10.4166 6.54276 10.1256 6.61262C9.83459 6.68248 9.57854 6.79156 9.35741 6.93984C9.13631 7.08816 8.96159 7.27707 8.83321 7.50665C8.70483 7.7362 8.64062 8.01068 8.64062 8.33008C8.64062 8.73789 8.75831 9.08581 8.99369 9.37385C9.22903 9.66186 9.58636 9.90568 10.0657 10.1053C10.254 10.1823 10.4294 10.2579 10.592 10.332C10.7547 10.4062 10.8952 10.4832 11.0135 10.563C11.1319 10.6429 11.2254 10.7299 11.2939 10.824C11.3623 10.9181 11.3966 11.025 11.3966 11.1448C11.3966 11.2332 11.3752 11.3152 11.3324 11.3907C11.2896 11.4663 11.2247 11.5319 11.1377 11.5875C11.0506 11.6431 10.9422 11.6866 10.8124 11.718C10.6826 11.7494 10.5307 11.765 10.3567 11.765C10.06 11.765 9.76612 11.713 9.4751 11.6089C9.18411 11.5048 8.9145 11.3487 8.6663 11.1405ZM6.36508 7.76787H8.12109V6.64453H3.22656V7.76787H4.97399V12.7695H6.36508V7.76787Z" fill="white"/>
</g>
<defs>
<clipPath id="clip0_147687_720">
<rect width="14" height="14" fill="white"/>
</clipPath>
</defs>
</svg>
